Coordinates
nRows=17
nColumns=24

# SIMM Motion File Header:
name Coordinates
datacolumns 24
datarows 17
otherdata 1
range 0.68600000000000005000 0.70199999999999996000
endheader
time	pelvis_tx	pelvis_ty	pelvis_tz	pelvis_tilt	pelvis_list	pelvis_rotation	hip_flexion_r	hip_adduction_r	hip_rotation_r	knee_angle_r	ankle_angle_r	subtalar_angle_r	mtp_angle_r	hip_flexion_l	hip_adduction_l	hip_rotation_l	knee_angle_l	ankle_angle_l	subtalar_angle_l	mtp_angle_l	lumbar_extension	lumbar_bending	lumbar_rotation
      0.68600000000000005000	      2.21110561646769100000	      0.86694485530583543000	     -0.24393029736823030000	     -5.24902143837302050000	      3.68712314364008710000	      2.15115664621865490000	     21.59188370836462300000	     -6.52689517148981220000	     -2.55011013076977330000	    -59.83729000445692500000	     -2.75428577934761520000	     -0.00000000000005847794	     -0.00000000000014391470	      9.04219848121021210000	      7.25442620898563730000	     11.14342585180202300000	    -17.68506125050621600000	      9.60452171450287470000	      0.00000000000007448821	     -0.00000000000011431000	     -4.54836437263708240000	     -4.39645553915022710000	     -2.20316575606462140000
      0.68700000000000006000	      2.21258616968649860000	      0.86703735168401574000	     -0.24384926954456065000	     -5.26457068768091220000	      3.64016546907009620000	      2.15555462380307940000	     21.80239848368246300000	     -6.47555091002606440000	     -2.61653512765745420000	    -59.77415271772336100000	     -2.57703672322207880000	     -0.00000000000005851272	     -0.00000000000014402894	      8.89045867421731730000	      7.20501412216090030000	     11.15634518973657700000	    -17.57373808941610300000	      9.62854557903878220000	      0.00000000000007486146	     -0.00000000000011493984	     -4.53932087632037360000	     -4.34077483745855370000	     -2.24097231786368840000
      0.68800000000000006000	      2.21406843524563660000	      0.86712205019566035000	     -0.24376802151348312000	     -5.27971301280048700000	      3.59372216899366400000	      2.16066617638731230000	     22.00894330959139100000	     -6.42518292121655680000	     -2.68172693631569810000	    -59.70084900886406100000	     -2.40388304019568540000	     -0.00000000000005854446	     -0.00000000000014413288	      8.73701290566136460000	      7.15595736923566770000	     11.17414919908018200000	    -17.45869939735035100000	      9.64526709743441120000	      0.00000000000007522933	     -0.00000000000011554992	     -4.53059038074394940000	     -4.28579075992338420000	     -2.27945073189640280000
      0.68900000000000006000	      2.21555070080477410000	      0.86720674870730496000	     -0.24368677348240558000	     -5.29485533792006180000	      3.54727886891723190000	      2.16577772897154520000	     22.21548813550031900000	     -6.37481493240704910000	     -2.74691874497394210000	    -59.62754530000475500000	     -2.23072935716929170000	     -0.00000000000005857620	     -0.00000000000014423681	      8.58356713710541360000	      7.10690061631043510000	     11.19195320842378600000	    -17.34366070528460200000	      9.66198861583003850000	      0.00000000000007559720	     -0.00000000000011615999	     -4.52185988516752510000	     -4.23080668238821560000	     -2.31792914592911670000
      0.69000000000000006000	      2.21703372601524820000	      0.86728780548810225000	     -0.24360556617073190000	     -5.30991624422588340000	      3.50095124159890720000	      2.17133001426259000000	     22.42027276148217800000	     -6.32482038155544310000	     -2.81162686556713130000	    -59.54946634866698900000	     -2.05973477142878590000	     -0.00000000000005860252	     -0.00000000000014435927	      8.42947293795007370000	      7.05785556889629540000	     11.21219510502690600000	    -17.22693778423961700000	      9.67485800427145120000	      0.00000000000007596788	     -0.00000000000011677037	     -4.51315847287751740000	     -4.17600905099601330000	     -2.35675349662295510000
      0.69100000000000006000	      2.21851751087705780000	      0.86736522053805221000	     -0.24352439957846206000	     -5.32489573171795170000	      3.45473928703869060000	      2.17732303226044490000	     22.62329718753697700000	     -6.27519926866173790000	     -2.87585129809526710000	    -59.46661215485077200000	     -1.89089928297416200000	     -0.00000000000005862341	     -0.00000000000014450024	      8.27473030819534650000	      7.00882222699324940000	     11.23487488888953400000	    -17.10853063421539800000	      9.68387526275865800000	      0.00000000000007634140	     -0.00000000000011738104	     -4.50448614387392520000	     -4.12139786574677820000	     -2.39592378397791660000
      0.69199999999999995000	      2.22000201723134790000	      0.86743874303250657000	     -0.24344324614002402000	     -5.33994060835971760000	      3.40859443293584930000	      2.18375547745629420000	     22.82471216900775000000	     -6.22591808659196030000	     -2.93956872381437550000	    -59.37890735446698900000	     -1.72440231651566920000	     -0.00000000000005863476	     -0.00000000000014465911	      8.11951225043645760000	      6.95971396381029810000	     11.26003453630238300000	    -16.98848144709056700000	      9.68966457179703870000	      0.00000000000007670803	     -0.00000000000011797938	     -4.49567582069987280000	     -4.06693673666329760000	     -2.43535783802935150000
      0.69299999999999995000	      2.22148724507811890000	      0.86750837297146510000	     -0.24336210585541784000	     -5.35505087415118460000	      3.36251667929037310000	      2.19062734985013960000	     23.02451770589454600000	     -6.17697683534609790000	     -3.00277914272446990000	    -59.28635194751561200000	     -1.56024387205327390000	     -0.00000000000005863658	     -0.00000000000014483589	      7.96381876467337070000	      6.91053077934742890000	     11.28767404726546400000	    -16.86679022286509900000	      9.69222593138659150000	      0.00000000000007706780	     -0.00000000000011856539	     -4.48672750335535840000	     -4.01262566374556060000	     -2.47505565877726760000
      0.69399999999999995000	      2.22297247292488990000	      0.86757800291042375000	     -0.24328096557081164000	     -5.37016113994265170000	      3.31643892564489740000	      2.19749922224398510000	     23.22432324278134200000	     -6.12803558410023630000	     -3.06598956163456380000	    -59.19379654056423600000	     -1.39608542759087830000	     -0.00000000000005863839	     -0.00000000000014501267	      7.80812527891028460000	      6.86134759488455970000	     11.31531355822854400000	    -16.74509899863962700000	      9.69478729097614430000	      0.00000000000007742756	     -0.00000000000011915139	     -4.47777918601084310000	     -3.95831459082782320000	     -2.51475347952518420000
      0.69499999999999995000	      2.22445913328826350000	      0.86763820958782789000	     -0.24319949947186709000	     -5.38582196249433750000	      3.27057617841933900000	      2.20511546740926210000	     23.42114651476216700000	     -6.07986655950396670000	     -3.12777710693492850000	    -59.09062627867864800000	     -1.23729134482773250000	     -0.00000000000005864180	     -0.00000000000014516569	      7.65188082552436910000	      6.81199392322347390000	     11.34817504594184400000	    -16.62002030628754700000	      9.69315031252582850000	      0.00000000000007776563	     -0.00000000000011973401	     -4.46806505137095120000	     -3.90447647991341730000	     -2.55462433258856650000
      0.69599999999999995000	      2.22594579365163760000	      0.86769841626523203000	     -0.24311803337292254000	     -5.40148278504602340000	      3.22471343119378110000	      2.21273171257453870000	     23.61796978674298900000	     -6.03169753490769620000	     -3.18956465223529320000	    -58.98745601679305400000	     -1.07849726206458740000	     -0.00000000000005864521	     -0.00000000000014531872	      7.49563637213845270000	      6.76264025156238890000	     11.38103653365514300000	    -16.49494161393546700000	      9.69151333407551260000	      0.00000000000007810369	     -0.00000000000012031664	     -4.45835091673105840000	     -3.85063836899901180000	     -2.59449518565194870000
      0.69699999999999995000	      2.22743308336051670000	      0.86775352619484536000	     -0.24303621714477769000	     -5.41760300785420410000	      3.17899191392770360000	      2.22059363256383470000	     23.81359282686825200000	     -5.98390054178547090000	     -3.25044390294267950000	    -58.87912384724991500000	     -0.92236169488195463000	     -0.00000000000005864735	     -0.00000000000014545185	      7.33935845680264800000	      6.71320686031656330000	     11.41628045579210800000	    -16.36834983277436700000	      9.68975832121783400000	      0.00000000000007842595	     -0.00000000000012085864	     -4.44804678351392100000	     -3.79710471204635840000	     -2.63424259915193430000
      0.69799999999999995000	      2.22892100241490130000	      0.86780353937666765000	     -0.24295405078743249000	     -5.43418263091887970000	      3.13341162662110760000	      2.22870122737715000000	     24.00801563513794400000	     -5.93647558013728990000	     -3.31041485905708830000	    -58.76562977004922300000	     -0.76888464327983252000	     -0.00000000000005864821	     -0.00000000000014556509	      7.18304707951695590000	      6.66369374948599800000	     11.45390681235273600000	    -16.24024496280424000000	      9.68788527395279250000	      0.00000000000007873239	     -0.00000000000012136003	     -4.43715265171953990000	     -3.74387550905545650000	     -2.67386657308852320000
      0.69899999999999995000	      2.23040892146928550000	      0.86785355255848995000	     -0.24287188443008731000	     -5.45076225398355520000	      3.08783133931451200000	      2.23680882219046540000	     24.20243844340764000000	     -5.88905061848910890000	     -3.37038581517149630000	    -58.65213569284852500000	     -0.61540759167771242000	     -0.00000000000005864907	     -0.00000000000014567833	      7.02673570223126380000	      6.61418063865543270000	     11.49153316891336700000	    -16.11214009283411700000	      9.68601222668775110000	      0.00000000000007903884	     -0.00000000000012186142	     -4.42625851992515780000	     -3.69064630606455510000	     -2.71349054702511210000
      0.69999999999999996000	      2.23189787297736240000	      0.86789393874787091000	     -0.24278883280156044000	     -5.46835329911394830000	      3.04253989527200860000	      2.24519304093135650000	     24.39501919732799700000	     -5.84224021007084810000	     -3.42841185265101170000	    -58.52960296691808400000	     -0.46651479480345015000	     -0.00000000000005865885	     -0.00000000000014573998	      6.87061980676445040000	      6.56451266486366160000	     11.53301056094067800000	    -15.98156627190064500000	      9.68668597425608980000	      0.00000000000007931854	     -0.00000000000012229220	     -4.41410027165003530000	     -3.63804146260244640000	     -2.75261271758789720000
      0.70099999999999996000	      2.23338682448543890000	      0.86793432493725187000	     -0.24270578117303354000	     -5.48594434424434050000	      2.99724845122950520000	      2.25357725967224720000	     24.58759995124835400000	     -5.79542980165258740000	     -3.48643789013052710000	    -58.40707024098764300000	     -0.31762199792918777000	     -0.00000000000005866863	     -0.00000000000014580163	      6.71450391129763610000	      6.51484469107188960000	     11.57448795296799000000	    -15.85099245096717400000	      9.68735972182442850000	      0.00000000000007959824	     -0.00000000000012272298	     -4.40194202337491270000	     -3.58543661914033820000	     -2.79173488815068230000
      0.70199999999999996000	      2.23487676606836990000	      0.86796498385337562000	     -0.24262155459736981000	     -5.50451838617768100000	      2.95229109406086600000	      2.26206111671015630000	     24.77839622392163200000	     -5.74916434779709370000	     -3.54224178352469240000	    -58.27572469615118000000	     -0.17308789327303889000	     -0.00000000000005871730	     -0.00000000000014578047	      6.55857570084629680000	      6.46500397293220710000	     11.61932725430150300000	    -15.71806745948722100000	      9.69126626713376100000	      0.00000000000007990311	     -0.00000000000012320612	     -4.38856648474835250000	     -3.53353346672566060000	     -2.83009610782200840000
